<?xml version="1.0" encoding="utf-8"?>
<svg version="1.1" baseProfile="full" width="800" height="600" xmlns="http://www.w3.org/2000/svg">
<clipPath>
<rect x="0" y="0" width="800" height="600" fill="rgb(0,0,0)" />
</clipPath>
<text x="279" y="34" fill="rgb(0,0,0)">
Number of Elements Sorted Versus Time</text>
<line x1="158.858" y1="50" x2="158.858" y2="550" stroke="rgb(200,200,200)" />
<line x1="222.835" y1="50" x2="222.835" y2="550" stroke="rgb(200,200,200)" />
<line x1="286.811" y1="50" x2="286.811" y2="550" stroke="rgb(200,200,200)" />
<line x1="350.787" y1="50" x2="350.787" y2="550" stroke="rgb(200,200,200)" />
<line x1="414.764" y1="50" x2="414.764" y2="550" stroke="rgb(200,200,200)" />
<line x1="478.74" y1="50" x2="478.74" y2="550" stroke="rgb(200,200,200)" />
<line x1="542.717" y1="50" x2="542.717" y2="550" stroke="rgb(200,200,200)" />
<line x1="606.693" y1="50" x2="606.693" y2="550" stroke="rgb(200,200,200)" />
<line x1="670.669" y1="50" x2="670.669" y2="550" stroke="rgb(200,200,200)" />
<line x1="734.646" y1="50" x2="734.646" y2="550" stroke="rgb(200,200,200)" />
<line x1="100" y1="550" x2="750" y2="550" stroke="rgb(200,200,200)" />
<line x1="100" y1="515.084" x2="750" y2="515.084" stroke="rgb(200,200,200)" />
<line x1="100" y1="480.168" x2="750" y2="480.168" stroke="rgb(200,200,200)" />
<line x1="100" y1="445.251" x2="750" y2="445.251" stroke="rgb(200,200,200)" />
<line x1="100" y1="410.335" x2="750" y2="410.335" stroke="rgb(200,200,200)" />
<line x1="100" y1="375.419" x2="750" y2="375.419" stroke="rgb(200,200,200)" />
<line x1="100" y1="340.503" x2="750" y2="340.503" stroke="rgb(200,200,200)" />
<line x1="100" y1="305.587" x2="750" y2="305.587" stroke="rgb(200,200,200)" />
<line x1="100" y1="270.67" x2="750" y2="270.67" stroke="rgb(200,200,200)" />
<line x1="100" y1="235.754" x2="750" y2="235.754" stroke="rgb(200,200,200)" />
<line x1="100" y1="200.838" x2="750" y2="200.838" stroke="rgb(200,200,200)" />
<line x1="100" y1="165.922" x2="750" y2="165.922" stroke="rgb(200,200,200)" />
<line x1="100" y1="131.006" x2="750" y2="131.006" stroke="rgb(200,200,200)" />
<line x1="100" y1="96.0894" x2="750" y2="96.0894" stroke="rgb(200,200,200)" />
<line x1="100" y1="61.1732" x2="750" y2="61.1732" stroke="rgb(200,200,200)" />
<line x1="100" y1="550" x2="750" y2="550" stroke="rgb(0,0,0)" />
<line x1="107.677" y1="550" x2="107.677" y2="554" stroke="rgb(0,0,0)" />
<line x1="120.472" y1="550" x2="120.472" y2="554" stroke="rgb(0,0,0)" />
<line x1="133.268" y1="550" x2="133.268" y2="554" stroke="rgb(0,0,0)" />
<line x1="146.063" y1="550" x2="146.063" y2="554" stroke="rgb(0,0,0)" />
<text x="158" y="578" fill="rgb(0,0,0)">
200</text>
<line x1="158.858" y1="550" x2="158.858" y2="558" stroke="rgb(0,0,0)" />
<line x1="171.654" y1="550" x2="171.654" y2="554" stroke="rgb(0,0,0)" />
<line x1="184.449" y1="550" x2="184.449" y2="554" stroke="rgb(0,0,0)" />
<line x1="197.244" y1="550" x2="197.244" y2="554" stroke="rgb(0,0,0)" />
<line x1="210.039" y1="550" x2="210.039" y2="554" stroke="rgb(0,0,0)" />
<text x="222" y="578" fill="rgb(0,0,0)">
400</text>
<line x1="222.835" y1="550" x2="222.835" y2="558" stroke="rgb(0,0,0)" />
<line x1="235.63" y1="550" x2="235.63" y2="554" stroke="rgb(0,0,0)" />
<line x1="248.425" y1="550" x2="248.425" y2="554" stroke="rgb(0,0,0)" />
<line x1="261.22" y1="550" x2="261.22" y2="554" stroke="rgb(0,0,0)" />
<line x1="274.016" y1="550" x2="274.016" y2="554" stroke="rgb(0,0,0)" />
<text x="286" y="578" fill="rgb(0,0,0)">
600</text>
<line x1="286.811" y1="550" x2="286.811" y2="558" stroke="rgb(0,0,0)" />
<line x1="299.606" y1="550" x2="299.606" y2="554" stroke="rgb(0,0,0)" />
<line x1="312.402" y1="550" x2="312.402" y2="554" stroke="rgb(0,0,0)" />
<line x1="325.197" y1="550" x2="325.197" y2="554" stroke="rgb(0,0,0)" />
<line x1="337.992" y1="550" x2="337.992" y2="554" stroke="rgb(0,0,0)" />
<text x="350" y="578" fill="rgb(0,0,0)">
800</text>
<line x1="350.787" y1="550" x2="350.787" y2="558" stroke="rgb(0,0,0)" />
<line x1="363.583" y1="550" x2="363.583" y2="554" stroke="rgb(0,0,0)" />
<line x1="376.378" y1="550" x2="376.378" y2="554" stroke="rgb(0,0,0)" />
<line x1="389.173" y1="550" x2="389.173" y2="554" stroke="rgb(0,0,0)" />
<line x1="401.969" y1="550" x2="401.969" y2="554" stroke="rgb(0,0,0)" />
<text x="414" y="578" fill="rgb(0,0,0)">
1000</text>
<line x1="414.764" y1="550" x2="414.764" y2="558" stroke="rgb(0,0,0)" />
<line x1="427.559" y1="550" x2="427.559" y2="554" stroke="rgb(0,0,0)" />
<line x1="440.354" y1="550" x2="440.354" y2="554" stroke="rgb(0,0,0)" />
<line x1="453.15" y1="550" x2="453.15" y2="554" stroke="rgb(0,0,0)" />
<line x1="465.945" y1="550" x2="465.945" y2="554" stroke="rgb(0,0,0)" />
<text x="478" y="578" fill="rgb(0,0,0)">
1200</text>
<line x1="478.74" y1="550" x2="478.74" y2="558" stroke="rgb(0,0,0)" />
<line x1="491.535" y1="550" x2="491.535" y2="554" stroke="rgb(0,0,0)" />
<line x1="504.331" y1="550" x2="504.331" y2="554" stroke="rgb(0,0,0)" />
<line x1="517.126" y1="550" x2="517.126" y2="554" stroke="rgb(0,0,0)" />
<line x1="529.921" y1="550" x2="529.921" y2="554" stroke="rgb(0,0,0)" />
<text x="542" y="578" fill="rgb(0,0,0)">
1400</text>
<line x1="542.717" y1="550" x2="542.717" y2="558" stroke="rgb(0,0,0)" />
<line x1="555.512" y1="550" x2="555.512" y2="554" stroke="rgb(0,0,0)" />
<line x1="568.307" y1="550" x2="568.307" y2="554" stroke="rgb(0,0,0)" />
<line x1="581.102" y1="550" x2="581.102" y2="554" stroke="rgb(0,0,0)" />
<line x1="593.898" y1="550" x2="593.898" y2="554" stroke="rgb(0,0,0)" />
<text x="606" y="578" fill="rgb(0,0,0)">
1600</text>
<line x1="606.693" y1="550" x2="606.693" y2="558" stroke="rgb(0,0,0)" />
<line x1="619.488" y1="550" x2="619.488" y2="554" stroke="rgb(0,0,0)" />
<line x1="632.283" y1="550" x2="632.283" y2="554" stroke="rgb(0,0,0)" />
<line x1="645.079" y1="550" x2="645.079" y2="554" stroke="rgb(0,0,0)" />
<line x1="657.874" y1="550" x2="657.874" y2="554" stroke="rgb(0,0,0)" />
<text x="670" y="578" fill="rgb(0,0,0)">
1800</text>
<line x1="670.669" y1="550" x2="670.669" y2="558" stroke="rgb(0,0,0)" />
<line x1="683.465" y1="550" x2="683.465" y2="554" stroke="rgb(0,0,0)" />
<line x1="696.26" y1="550" x2="696.26" y2="554" stroke="rgb(0,0,0)" />
<line x1="709.055" y1="550" x2="709.055" y2="554" stroke="rgb(0,0,0)" />
<line x1="721.85" y1="550" x2="721.85" y2="554" stroke="rgb(0,0,0)" />
<text x="734" y="578" fill="rgb(0,0,0)">
2000</text>
<line x1="734.646" y1="550" x2="734.646" y2="558" stroke="rgb(0,0,0)" />
<line x1="747.441" y1="550" x2="747.441" y2="554" stroke="rgb(0,0,0)" />
<text x="409" y="594" fill="rgb(0,0,0)">
N</text>
<line x1="100" y1="50" x2="100" y2="550" stroke="rgb(0,0,0)" />
<text x="58" y="558" fill="rgb(0,0,0)">
0</text>
<line x1="100" y1="550" x2="92" y2="550" stroke="rgb(0,0,0)" />
<line x1="100" y1="543.017" x2="96" y2="543.017" stroke="rgb(0,0,0)" />
<line x1="100" y1="536.034" x2="96" y2="536.034" stroke="rgb(0,0,0)" />
<line x1="100" y1="529.05" x2="96" y2="529.05" stroke="rgb(0,0,0)" />
<line x1="100" y1="522.067" x2="96" y2="522.067" stroke="rgb(0,0,0)" />
<text x="52" y="523" fill="rgb(0,0,0)">
50</text>
<line x1="100" y1="515.084" x2="92" y2="515.084" stroke="rgb(0,0,0)" />
<line x1="100" y1="508.101" x2="96" y2="508.101" stroke="rgb(0,0,0)" />
<line x1="100" y1="501.117" x2="96" y2="501.117" stroke="rgb(0,0,0)" />
<line x1="100" y1="494.134" x2="96" y2="494.134" stroke="rgb(0,0,0)" />
<line x1="100" y1="487.151" x2="96" y2="487.151" stroke="rgb(0,0,0)" />
<text x="47" y="488" fill="rgb(0,0,0)">
100</text>
<line x1="100" y1="480.168" x2="92" y2="480.168" stroke="rgb(0,0,0)" />
<line x1="100" y1="473.184" x2="96" y2="473.184" stroke="rgb(0,0,0)" />
<line x1="100" y1="466.201" x2="96" y2="466.201" stroke="rgb(0,0,0)" />
<line x1="100" y1="459.218" x2="96" y2="459.218" stroke="rgb(0,0,0)" />
<line x1="100" y1="452.235" x2="96" y2="452.235" stroke="rgb(0,0,0)" />
<text x="47" y="453" fill="rgb(0,0,0)">
150</text>
<line x1="100" y1="445.251" x2="92" y2="445.251" stroke="rgb(0,0,0)" />
<line x1="100" y1="438.268" x2="96" y2="438.268" stroke="rgb(0,0,0)" />
<line x1="100" y1="431.285" x2="96" y2="431.285" stroke="rgb(0,0,0)" />
<line x1="100" y1="424.302" x2="96" y2="424.302" stroke="rgb(0,0,0)" />
<line x1="100" y1="417.318" x2="96" y2="417.318" stroke="rgb(0,0,0)" />
<text x="46" y="418" fill="rgb(0,0,0)">
200</text>
<line x1="100" y1="410.335" x2="92" y2="410.335" stroke="rgb(0,0,0)" />
<line x1="100" y1="403.352" x2="96" y2="403.352" stroke="rgb(0,0,0)" />
<line x1="100" y1="396.369" x2="96" y2="396.369" stroke="rgb(0,0,0)" />
<line x1="100" y1="389.385" x2="96" y2="389.385" stroke="rgb(0,0,0)" />
<line x1="100" y1="382.402" x2="96" y2="382.402" stroke="rgb(0,0,0)" />
<text x="46" y="383" fill="rgb(0,0,0)">
250</text>
<line x1="100" y1="375.419" x2="92" y2="375.419" stroke="rgb(0,0,0)" />
<line x1="100" y1="368.436" x2="96" y2="368.436" stroke="rgb(0,0,0)" />
<line x1="100" y1="361.453" x2="96" y2="361.453" stroke="rgb(0,0,0)" />
<line x1="100" y1="354.469" x2="96" y2="354.469" stroke="rgb(0,0,0)" />
<line x1="100" y1="347.486" x2="96" y2="347.486" stroke="rgb(0,0,0)" />
<text x="46" y="348" fill="rgb(0,0,0)">
300</text>
<line x1="100" y1="340.503" x2="92" y2="340.503" stroke="rgb(0,0,0)" />
<line x1="100" y1="333.52" x2="96" y2="333.52" stroke="rgb(0,0,0)" />
<line x1="100" y1="326.536" x2="96" y2="326.536" stroke="rgb(0,0,0)" />
<line x1="100" y1="319.553" x2="96" y2="319.553" stroke="rgb(0,0,0)" />
<line x1="100" y1="312.57" x2="96" y2="312.57" stroke="rgb(0,0,0)" />
<text x="46" y="313" fill="rgb(0,0,0)">
350</text>
<line x1="100" y1="305.587" x2="92" y2="305.587" stroke="rgb(0,0,0)" />
<line x1="100" y1="298.603" x2="96" y2="298.603" stroke="rgb(0,0,0)" />
<line x1="100" y1="291.62" x2="96" y2="291.62" stroke="rgb(0,0,0)" />
<line x1="100" y1="284.637" x2="96" y2="284.637" stroke="rgb(0,0,0)" />
<line x1="100" y1="277.654" x2="96" y2="277.654" stroke="rgb(0,0,0)" />
<text x="46" y="278" fill="rgb(0,0,0)">
400</text>
<line x1="100" y1="270.67" x2="92" y2="270.67" stroke="rgb(0,0,0)" />
<line x1="100" y1="263.687" x2="96" y2="263.687" stroke="rgb(0,0,0)" />
<line x1="100" y1="256.704" x2="96" y2="256.704" stroke="rgb(0,0,0)" />
<line x1="100" y1="249.721" x2="96" y2="249.721" stroke="rgb(0,0,0)" />
<line x1="100" y1="242.737" x2="96" y2="242.737" stroke="rgb(0,0,0)" />
<text x="46" y="243" fill="rgb(0,0,0)">
450</text>
<line x1="100" y1="235.754" x2="92" y2="235.754" stroke="rgb(0,0,0)" />
<line x1="100" y1="228.771" x2="96" y2="228.771" stroke="rgb(0,0,0)" />
<line x1="100" y1="221.788" x2="96" y2="221.788" stroke="rgb(0,0,0)" />
<line x1="100" y1="214.804" x2="96" y2="214.804" stroke="rgb(0,0,0)" />
<line x1="100" y1="207.821" x2="96" y2="207.821" stroke="rgb(0,0,0)" />
<text x="46" y="208" fill="rgb(0,0,0)">
500</text>
<line x1="100" y1="200.838" x2="92" y2="200.838" stroke="rgb(0,0,0)" />
<line x1="100" y1="193.855" x2="96" y2="193.855" stroke="rgb(0,0,0)" />
<line x1="100" y1="186.872" x2="96" y2="186.872" stroke="rgb(0,0,0)" />
<line x1="100" y1="179.888" x2="96" y2="179.888" stroke="rgb(0,0,0)" />
<line x1="100" y1="172.905" x2="96" y2="172.905" stroke="rgb(0,0,0)" />
<text x="46" y="173" fill="rgb(0,0,0)">
550</text>
<line x1="100" y1="165.922" x2="92" y2="165.922" stroke="rgb(0,0,0)" />
<line x1="100" y1="158.939" x2="96" y2="158.939" stroke="rgb(0,0,0)" />
<line x1="100" y1="151.955" x2="96" y2="151.955" stroke="rgb(0,0,0)" />
<line x1="100" y1="144.972" x2="96" y2="144.972" stroke="rgb(0,0,0)" />
<line x1="100" y1="137.989" x2="96" y2="137.989" stroke="rgb(0,0,0)" />
<text x="46" y="139" fill="rgb(0,0,0)">
600</text>
<line x1="100" y1="131.006" x2="92" y2="131.006" stroke="rgb(0,0,0)" />
<line x1="100" y1="124.022" x2="96" y2="124.022" stroke="rgb(0,0,0)" />
<line x1="100" y1="117.039" x2="96" y2="117.039" stroke="rgb(0,0,0)" />
<line x1="100" y1="110.056" x2="96" y2="110.056" stroke="rgb(0,0,0)" />
<line x1="100" y1="103.073" x2="96" y2="103.073" stroke="rgb(0,0,0)" />
<text x="46" y="104" fill="rgb(0,0,0)">
650</text>
<line x1="100" y1="96.0894" x2="92" y2="96.0894" stroke="rgb(0,0,0)" />
<line x1="100" y1="89.1061" x2="96" y2="89.1061" stroke="rgb(0,0,0)" />
<line x1="100" y1="82.1229" x2="96" y2="82.1229" stroke="rgb(0,0,0)" />
<line x1="100" y1="75.1396" x2="96" y2="75.1396" stroke="rgb(0,0,0)" />
<line x1="100" y1="68.1564" x2="96" y2="68.1564" stroke="rgb(0,0,0)" />
<text x="46" y="69" fill="rgb(0,0,0)">
700</text>
<line x1="100" y1="61.1732" x2="92" y2="61.1732" stroke="rgb(0,0,0)" />
<line x1="100" y1="54.1899" x2="96" y2="54.1899" stroke="rgb(0,0,0)" />
<text x="46" y="370" transform="rotate(-90,46,370)">Time (microseconds)</text>
<text x="120" y="66" fill="rgb(200,0,100)">
mergeSort</text>
<text x="120" y="98" fill="rgb(100,20,220)">
quickSort</text>
<text x="120" y="130" fill="rgb(50,220,10)">
insertionSort</text>
<text x="120" y="162" fill="rgb(200,209,140)">
hybridSort</text>
<text x="120" y="194" fill="rgb(20,100,100)">
std::sort</text>
<clipPath>
<rect x="100" y="50" width="650" height="500" fill="rgb(0,0,0)" />
</clipPath>
<line x1="100" y1="547.905" x2="105.118" y2="549.302" stroke="rgb(200,0,100)" />
<line x1="105.118" y1="549.302" x2="115.354" y2="549.302" stroke="rgb(200,0,100)" />
<line x1="115.354" y1="549.302" x2="135.827" y2="549.302" stroke="rgb(200,0,100)" />
<line x1="135.827" y1="549.302" x2="176.772" y2="549.302" stroke="rgb(200,0,100)" />
<line x1="176.772" y1="549.302" x2="258.661" y2="548.603" stroke="rgb(200,0,100)" />
<line x1="258.661" y1="548.603" x2="422.441" y2="548.603" stroke="rgb(200,0,100)" />
<line x1="422.441" y1="548.603" x2="750" y2="549.302" stroke="rgb(200,0,100)" />
<line x1="100" y1="550" x2="105.118" y2="550" stroke="rgb(100,20,220)" />
<line x1="105.118" y1="550" x2="115.354" y2="550" stroke="rgb(100,20,220)" />
<line x1="115.354" y1="550" x2="135.827" y2="550" stroke="rgb(100,20,220)" />
<line x1="135.827" y1="550" x2="176.772" y2="550" stroke="rgb(100,20,220)" />
<line x1="176.772" y1="550" x2="258.661" y2="550" stroke="rgb(100,20,220)" />
<line x1="258.661" y1="550" x2="422.441" y2="550" stroke="rgb(100,20,220)" />
<line x1="422.441" y1="550" x2="750" y2="549.302" stroke="rgb(100,20,220)" />
<line x1="100" y1="550" x2="105.118" y2="550" stroke="rgb(50,220,10)" />
<line x1="105.118" y1="550" x2="115.354" y2="550" stroke="rgb(50,220,10)" />
<line x1="115.354" y1="550" x2="135.827" y2="550" stroke="rgb(50,220,10)" />
<line x1="135.827" y1="550" x2="176.772" y2="550" stroke="rgb(50,220,10)" />
<line x1="176.772" y1="550" x2="258.661" y2="550" stroke="rgb(50,220,10)" />
<line x1="258.661" y1="550" x2="422.441" y2="550" stroke="rgb(50,220,10)" />
<line x1="422.441" y1="550" x2="750" y2="550" stroke="rgb(50,220,10)" />
<line x1="100" y1="550" x2="105.118" y2="550" stroke="rgb(200,209,140)" />
<line x1="105.118" y1="550" x2="115.354" y2="550" stroke="rgb(200,209,140)" />
<line x1="115.354" y1="550" x2="135.827" y2="549.302" stroke="rgb(200,209,140)" />
<line x1="135.827" y1="549.302" x2="176.772" y2="550" stroke="rgb(200,209,140)" />
<line x1="176.772" y1="550" x2="258.661" y2="550" stroke="rgb(200,209,140)" />
<line x1="258.661" y1="550" x2="422.441" y2="550" stroke="rgb(200,209,140)" />
<line x1="422.441" y1="550" x2="750" y2="550" stroke="rgb(200,209,140)" />
<line x1="100" y1="547.207" x2="105.118" y2="545.112" stroke="rgb(20,100,100)" />
<line x1="105.118" y1="545.112" x2="115.354" y2="427.095" stroke="rgb(20,100,100)" />
<line x1="115.354" y1="427.095" x2="135.827" y2="524.162" stroke="rgb(20,100,100)" />
<line x1="135.827" y1="524.162" x2="176.772" y2="494.832" stroke="rgb(20,100,100)" />
<line x1="176.772" y1="494.832" x2="258.661" y2="428.492" stroke="rgb(20,100,100)" />
<line x1="258.661" y1="428.492" x2="422.441" y2="277.654" stroke="rgb(20,100,100)" />
<line x1="422.441" y1="277.654" x2="750" y2="50" stroke="rgb(20,100,100)" />
</svg>

