<?xml version="1.0" encoding="utf-8"?>
<svg version="1.1" baseProfile="full" width="800" height="600" xmlns="http://www.w3.org/2000/svg">
<clipPath>
<rect x="0" y="0" width="800" height="600" fill="rgb(0,0,0)" />
</clipPath>
<text x="279" y="34" fill="rgb(0,0,0)">
Number of Elements Sorted Versus Time</text>
<line x1="158.858" y1="50" x2="158.858" y2="550" stroke="rgb(200,200,200)" />
<line x1="222.835" y1="50" x2="222.835" y2="550" stroke="rgb(200,200,200)" />
<line x1="286.811" y1="50" x2="286.811" y2="550" stroke="rgb(200,200,200)" />
<line x1="350.787" y1="50" x2="350.787" y2="550" stroke="rgb(200,200,200)" />
<line x1="414.764" y1="50" x2="414.764" y2="550" stroke="rgb(200,200,200)" />
<line x1="478.74" y1="50" x2="478.74" y2="550" stroke="rgb(200,200,200)" />
<line x1="542.717" y1="50" x2="542.717" y2="550" stroke="rgb(200,200,200)" />
<line x1="606.693" y1="50" x2="606.693" y2="550" stroke="rgb(200,200,200)" />
<line x1="670.669" y1="50" x2="670.669" y2="550" stroke="rgb(200,200,200)" />
<line x1="734.646" y1="50" x2="734.646" y2="550" stroke="rgb(200,200,200)" />
<line x1="100" y1="550" x2="750" y2="550" stroke="rgb(200,200,200)" />
<line x1="100" y1="519.419" x2="750" y2="519.419" stroke="rgb(200,200,200)" />
<line x1="100" y1="488.838" x2="750" y2="488.838" stroke="rgb(200,200,200)" />
<line x1="100" y1="458.257" x2="750" y2="458.257" stroke="rgb(200,200,200)" />
<line x1="100" y1="427.676" x2="750" y2="427.676" stroke="rgb(200,200,200)" />
<line x1="100" y1="397.095" x2="750" y2="397.095" stroke="rgb(200,200,200)" />
<line x1="100" y1="366.514" x2="750" y2="366.514" stroke="rgb(200,200,200)" />
<line x1="100" y1="335.933" x2="750" y2="335.933" stroke="rgb(200,200,200)" />
<line x1="100" y1="305.352" x2="750" y2="305.352" stroke="rgb(200,200,200)" />
<line x1="100" y1="274.771" x2="750" y2="274.771" stroke="rgb(200,200,200)" />
<line x1="100" y1="244.19" x2="750" y2="244.19" stroke="rgb(200,200,200)" />
<line x1="100" y1="213.609" x2="750" y2="213.609" stroke="rgb(200,200,200)" />
<line x1="100" y1="183.028" x2="750" y2="183.028" stroke="rgb(200,200,200)" />
<line x1="100" y1="152.446" x2="750" y2="152.446" stroke="rgb(200,200,200)" />
<line x1="100" y1="121.865" x2="750" y2="121.865" stroke="rgb(200,200,200)" />
<line x1="100" y1="91.2844" x2="750" y2="91.2844" stroke="rgb(200,200,200)" />
<line x1="100" y1="60.7034" x2="750" y2="60.7034" stroke="rgb(200,200,200)" />
<line x1="100" y1="550" x2="750" y2="550" stroke="rgb(0,0,0)" />
<line x1="107.677" y1="550" x2="107.677" y2="554" stroke="rgb(0,0,0)" />
<line x1="120.472" y1="550" x2="120.472" y2="554" stroke="rgb(0,0,0)" />
<line x1="133.268" y1="550" x2="133.268" y2="554" stroke="rgb(0,0,0)" />
<line x1="146.063" y1="550" x2="146.063" y2="554" stroke="rgb(0,0,0)" />
<text x="158" y="578" fill="rgb(0,0,0)">
200</text>
<line x1="158.858" y1="550" x2="158.858" y2="558" stroke="rgb(0,0,0)" />
<line x1="171.654" y1="550" x2="171.654" y2="554" stroke="rgb(0,0,0)" />
<line x1="184.449" y1="550" x2="184.449" y2="554" stroke="rgb(0,0,0)" />
<line x1="197.244" y1="550" x2="197.244" y2="554" stroke="rgb(0,0,0)" />
<line x1="210.039" y1="550" x2="210.039" y2="554" stroke="rgb(0,0,0)" />
<text x="222" y="578" fill="rgb(0,0,0)">
400</text>
<line x1="222.835" y1="550" x2="222.835" y2="558" stroke="rgb(0,0,0)" />
<line x1="235.63" y1="550" x2="235.63" y2="554" stroke="rgb(0,0,0)" />
<line x1="248.425" y1="550" x2="248.425" y2="554" stroke="rgb(0,0,0)" />
<line x1="261.22" y1="550" x2="261.22" y2="554" stroke="rgb(0,0,0)" />
<line x1="274.016" y1="550" x2="274.016" y2="554" stroke="rgb(0,0,0)" />
<text x="286" y="578" fill="rgb(0,0,0)">
600</text>
<line x1="286.811" y1="550" x2="286.811" y2="558" stroke="rgb(0,0,0)" />
<line x1="299.606" y1="550" x2="299.606" y2="554" stroke="rgb(0,0,0)" />
<line x1="312.402" y1="550" x2="312.402" y2="554" stroke="rgb(0,0,0)" />
<line x1="325.197" y1="550" x2="325.197" y2="554" stroke="rgb(0,0,0)" />
<line x1="337.992" y1="550" x2="337.992" y2="554" stroke="rgb(0,0,0)" />
<text x="350" y="578" fill="rgb(0,0,0)">
800</text>
<line x1="350.787" y1="550" x2="350.787" y2="558" stroke="rgb(0,0,0)" />
<line x1="363.583" y1="550" x2="363.583" y2="554" stroke="rgb(0,0,0)" />
<line x1="376.378" y1="550" x2="376.378" y2="554" stroke="rgb(0,0,0)" />
<line x1="389.173" y1="550" x2="389.173" y2="554" stroke="rgb(0,0,0)" />
<line x1="401.969" y1="550" x2="401.969" y2="554" stroke="rgb(0,0,0)" />
<text x="414" y="578" fill="rgb(0,0,0)">
1000</text>
<line x1="414.764" y1="550" x2="414.764" y2="558" stroke="rgb(0,0,0)" />
<line x1="427.559" y1="550" x2="427.559" y2="554" stroke="rgb(0,0,0)" />
<line x1="440.354" y1="550" x2="440.354" y2="554" stroke="rgb(0,0,0)" />
<line x1="453.15" y1="550" x2="453.15" y2="554" stroke="rgb(0,0,0)" />
<line x1="465.945" y1="550" x2="465.945" y2="554" stroke="rgb(0,0,0)" />
<text x="478" y="578" fill="rgb(0,0,0)">
1200</text>
<line x1="478.74" y1="550" x2="478.74" y2="558" stroke="rgb(0,0,0)" />
<line x1="491.535" y1="550" x2="491.535" y2="554" stroke="rgb(0,0,0)" />
<line x1="504.331" y1="550" x2="504.331" y2="554" stroke="rgb(0,0,0)" />
<line x1="517.126" y1="550" x2="517.126" y2="554" stroke="rgb(0,0,0)" />
<line x1="529.921" y1="550" x2="529.921" y2="554" stroke="rgb(0,0,0)" />
<text x="542" y="578" fill="rgb(0,0,0)">
1400</text>
<line x1="542.717" y1="550" x2="542.717" y2="558" stroke="rgb(0,0,0)" />
<line x1="555.512" y1="550" x2="555.512" y2="554" stroke="rgb(0,0,0)" />
<line x1="568.307" y1="550" x2="568.307" y2="554" stroke="rgb(0,0,0)" />
<line x1="581.102" y1="550" x2="581.102" y2="554" stroke="rgb(0,0,0)" />
<line x1="593.898" y1="550" x2="593.898" y2="554" stroke="rgb(0,0,0)" />
<text x="606" y="578" fill="rgb(0,0,0)">
1600</text>
<line x1="606.693" y1="550" x2="606.693" y2="558" stroke="rgb(0,0,0)" />
<line x1="619.488" y1="550" x2="619.488" y2="554" stroke="rgb(0,0,0)" />
<line x1="632.283" y1="550" x2="632.283" y2="554" stroke="rgb(0,0,0)" />
<line x1="645.079" y1="550" x2="645.079" y2="554" stroke="rgb(0,0,0)" />
<line x1="657.874" y1="550" x2="657.874" y2="554" stroke="rgb(0,0,0)" />
<text x="670" y="578" fill="rgb(0,0,0)">
1800</text>
<line x1="670.669" y1="550" x2="670.669" y2="558" stroke="rgb(0,0,0)" />
<line x1="683.465" y1="550" x2="683.465" y2="554" stroke="rgb(0,0,0)" />
<line x1="696.26" y1="550" x2="696.26" y2="554" stroke="rgb(0,0,0)" />
<line x1="709.055" y1="550" x2="709.055" y2="554" stroke="rgb(0,0,0)" />
<line x1="721.85" y1="550" x2="721.85" y2="554" stroke="rgb(0,0,0)" />
<text x="734" y="578" fill="rgb(0,0,0)">
2000</text>
<line x1="734.646" y1="550" x2="734.646" y2="558" stroke="rgb(0,0,0)" />
<line x1="747.441" y1="550" x2="747.441" y2="554" stroke="rgb(0,0,0)" />
<text x="409" y="594" fill="rgb(0,0,0)">
N</text>
<line x1="100" y1="50" x2="100" y2="550" stroke="rgb(0,0,0)" />
<text x="58" y="558" fill="rgb(0,0,0)">
0</text>
<line x1="100" y1="550" x2="92" y2="550" stroke="rgb(0,0,0)" />
<line x1="100" y1="543.884" x2="96" y2="543.884" stroke="rgb(0,0,0)" />
<line x1="100" y1="537.768" x2="96" y2="537.768" stroke="rgb(0,0,0)" />
<line x1="100" y1="531.651" x2="96" y2="531.651" stroke="rgb(0,0,0)" />
<line x1="100" y1="525.535" x2="96" y2="525.535" stroke="rgb(0,0,0)" />
<text x="52" y="527" fill="rgb(0,0,0)">
20</text>
<line x1="100" y1="519.419" x2="92" y2="519.419" stroke="rgb(0,0,0)" />
<line x1="100" y1="513.303" x2="96" y2="513.303" stroke="rgb(0,0,0)" />
<line x1="100" y1="507.187" x2="96" y2="507.187" stroke="rgb(0,0,0)" />
<line x1="100" y1="501.07" x2="96" y2="501.07" stroke="rgb(0,0,0)" />
<line x1="100" y1="494.954" x2="96" y2="494.954" stroke="rgb(0,0,0)" />
<text x="52" y="496" fill="rgb(0,0,0)">
40</text>
<line x1="100" y1="488.838" x2="92" y2="488.838" stroke="rgb(0,0,0)" />
<line x1="100" y1="482.722" x2="96" y2="482.722" stroke="rgb(0,0,0)" />
<line x1="100" y1="476.605" x2="96" y2="476.605" stroke="rgb(0,0,0)" />
<line x1="100" y1="470.489" x2="96" y2="470.489" stroke="rgb(0,0,0)" />
<line x1="100" y1="464.373" x2="96" y2="464.373" stroke="rgb(0,0,0)" />
<text x="52" y="466" fill="rgb(0,0,0)">
60</text>
<line x1="100" y1="458.257" x2="92" y2="458.257" stroke="rgb(0,0,0)" />
<line x1="100" y1="452.141" x2="96" y2="452.141" stroke="rgb(0,0,0)" />
<line x1="100" y1="446.024" x2="96" y2="446.024" stroke="rgb(0,0,0)" />
<line x1="100" y1="439.908" x2="96" y2="439.908" stroke="rgb(0,0,0)" />
<line x1="100" y1="433.792" x2="96" y2="433.792" stroke="rgb(0,0,0)" />
<text x="52" y="435" fill="rgb(0,0,0)">
80</text>
<line x1="100" y1="427.676" x2="92" y2="427.676" stroke="rgb(0,0,0)" />
<line x1="100" y1="421.56" x2="96" y2="421.56" stroke="rgb(0,0,0)" />
<line x1="100" y1="415.443" x2="96" y2="415.443" stroke="rgb(0,0,0)" />
<line x1="100" y1="409.327" x2="96" y2="409.327" stroke="rgb(0,0,0)" />
<line x1="100" y1="403.211" x2="96" y2="403.211" stroke="rgb(0,0,0)" />
<text x="47" y="405" fill="rgb(0,0,0)">
100</text>
<line x1="100" y1="397.095" x2="92" y2="397.095" stroke="rgb(0,0,0)" />
<line x1="100" y1="390.979" x2="96" y2="390.979" stroke="rgb(0,0,0)" />
<line x1="100" y1="384.862" x2="96" y2="384.862" stroke="rgb(0,0,0)" />
<line x1="100" y1="378.746" x2="96" y2="378.746" stroke="rgb(0,0,0)" />
<line x1="100" y1="372.63" x2="96" y2="372.63" stroke="rgb(0,0,0)" />
<text x="47" y="374" fill="rgb(0,0,0)">
120</text>
<line x1="100" y1="366.514" x2="92" y2="366.514" stroke="rgb(0,0,0)" />
<line x1="100" y1="360.398" x2="96" y2="360.398" stroke="rgb(0,0,0)" />
<line x1="100" y1="354.281" x2="96" y2="354.281" stroke="rgb(0,0,0)" />
<line x1="100" y1="348.165" x2="96" y2="348.165" stroke="rgb(0,0,0)" />
<line x1="100" y1="342.049" x2="96" y2="342.049" stroke="rgb(0,0,0)" />
<text x="47" y="343" fill="rgb(0,0,0)">
140</text>
<line x1="100" y1="335.933" x2="92" y2="335.933" stroke="rgb(0,0,0)" />
<line x1="100" y1="329.817" x2="96" y2="329.817" stroke="rgb(0,0,0)" />
<line x1="100" y1="323.7" x2="96" y2="323.7" stroke="rgb(0,0,0)" />
<line x1="100" y1="317.584" x2="96" y2="317.584" stroke="rgb(0,0,0)" />
<line x1="100" y1="311.468" x2="96" y2="311.468" stroke="rgb(0,0,0)" />
<text x="47" y="313" fill="rgb(0,0,0)">
160</text>
<line x1="100" y1="305.352" x2="92" y2="305.352" stroke="rgb(0,0,0)" />
<line x1="100" y1="299.235" x2="96" y2="299.235" stroke="rgb(0,0,0)" />
<line x1="100" y1="293.119" x2="96" y2="293.119" stroke="rgb(0,0,0)" />
<line x1="100" y1="287.003" x2="96" y2="287.003" stroke="rgb(0,0,0)" />
<line x1="100" y1="280.887" x2="96" y2="280.887" stroke="rgb(0,0,0)" />
<text x="47" y="282" fill="rgb(0,0,0)">
180</text>
<line x1="100" y1="274.771" x2="92" y2="274.771" stroke="rgb(0,0,0)" />
<line x1="100" y1="268.654" x2="96" y2="268.654" stroke="rgb(0,0,0)" />
<line x1="100" y1="262.538" x2="96" y2="262.538" stroke="rgb(0,0,0)" />
<line x1="100" y1="256.422" x2="96" y2="256.422" stroke="rgb(0,0,0)" />
<line x1="100" y1="250.306" x2="96" y2="250.306" stroke="rgb(0,0,0)" />
<text x="46" y="252" fill="rgb(0,0,0)">
200</text>
<line x1="100" y1="244.19" x2="92" y2="244.19" stroke="rgb(0,0,0)" />
<line x1="100" y1="238.073" x2="96" y2="238.073" stroke="rgb(0,0,0)" />
<line x1="100" y1="231.957" x2="96" y2="231.957" stroke="rgb(0,0,0)" />
<line x1="100" y1="225.841" x2="96" y2="225.841" stroke="rgb(0,0,0)" />
<line x1="100" y1="219.725" x2="96" y2="219.725" stroke="rgb(0,0,0)" />
<text x="46" y="221" fill="rgb(0,0,0)">
220</text>
<line x1="100" y1="213.609" x2="92" y2="213.609" stroke="rgb(0,0,0)" />
<line x1="100" y1="207.492" x2="96" y2="207.492" stroke="rgb(0,0,0)" />
<line x1="100" y1="201.376" x2="96" y2="201.376" stroke="rgb(0,0,0)" />
<line x1="100" y1="195.26" x2="96" y2="195.26" stroke="rgb(0,0,0)" />
<line x1="100" y1="189.144" x2="96" y2="189.144" stroke="rgb(0,0,0)" />
<text x="46" y="191" fill="rgb(0,0,0)">
240</text>
<line x1="100" y1="183.028" x2="92" y2="183.028" stroke="rgb(0,0,0)" />
<line x1="100" y1="176.911" x2="96" y2="176.911" stroke="rgb(0,0,0)" />
<line x1="100" y1="170.795" x2="96" y2="170.795" stroke="rgb(0,0,0)" />
<line x1="100" y1="164.679" x2="96" y2="164.679" stroke="rgb(0,0,0)" />
<line x1="100" y1="158.563" x2="96" y2="158.563" stroke="rgb(0,0,0)" />
<text x="46" y="160" fill="rgb(0,0,0)">
260</text>
<line x1="100" y1="152.446" x2="92" y2="152.446" stroke="rgb(0,0,0)" />
<line x1="100" y1="146.33" x2="96" y2="146.33" stroke="rgb(0,0,0)" />
<line x1="100" y1="140.214" x2="96" y2="140.214" stroke="rgb(0,0,0)" />
<line x1="100" y1="134.098" x2="96" y2="134.098" stroke="rgb(0,0,0)" />
<line x1="100" y1="127.982" x2="96" y2="127.982" stroke="rgb(0,0,0)" />
<text x="46" y="129" fill="rgb(0,0,0)">
280</text>
<line x1="100" y1="121.865" x2="92" y2="121.865" stroke="rgb(0,0,0)" />
<line x1="100" y1="115.749" x2="96" y2="115.749" stroke="rgb(0,0,0)" />
<line x1="100" y1="109.633" x2="96" y2="109.633" stroke="rgb(0,0,0)" />
<line x1="100" y1="103.517" x2="96" y2="103.517" stroke="rgb(0,0,0)" />
<line x1="100" y1="97.4006" x2="96" y2="97.4006" stroke="rgb(0,0,0)" />
<text x="46" y="99" fill="rgb(0,0,0)">
300</text>
<line x1="100" y1="91.2844" x2="92" y2="91.2844" stroke="rgb(0,0,0)" />
<line x1="100" y1="85.1682" x2="96" y2="85.1682" stroke="rgb(0,0,0)" />
<line x1="100" y1="79.052" x2="96" y2="79.052" stroke="rgb(0,0,0)" />
<line x1="100" y1="72.9358" x2="96" y2="72.9358" stroke="rgb(0,0,0)" />
<line x1="100" y1="66.8195" x2="96" y2="66.8195" stroke="rgb(0,0,0)" />
<text x="46" y="68" fill="rgb(0,0,0)">
320</text>
<line x1="100" y1="60.7034" x2="92" y2="60.7034" stroke="rgb(0,0,0)" />
<line x1="100" y1="54.5872" x2="96" y2="54.5872" stroke="rgb(0,0,0)" />
<text x="46" y="370" transform="rotate(-90,46,370)">Time (microseconds)</text>
<text x="120" y="66" fill="rgb(200,0,100)">
mergeSort</text>
<text x="120" y="98" fill="rgb(100,20,220)">
quickSort</text>
<text x="120" y="130" fill="rgb(50,220,10)">
insertionSort</text>
<text x="120" y="162" fill="rgb(200,209,140)">
hybridSort</text>
<text x="120" y="194" fill="rgb(20,100,100)">
std::sort</text>
<clipPath>
<rect x="100" y="50" width="650" height="500" fill="rgb(0,0,0)" />
</clipPath>
<line x1="100" y1="542.355" x2="105.118" y2="543.884" stroke="rgb(200,0,100)" />
<line x1="105.118" y1="543.884" x2="115.354" y2="536.239" stroke="rgb(200,0,100)" />
<line x1="115.354" y1="536.239" x2="135.827" y2="524.006" stroke="rgb(200,0,100)" />
<line x1="135.827" y1="524.006" x2="176.772" y2="494.954" stroke="rgb(200,0,100)" />
<line x1="176.772" y1="494.954" x2="258.661" y2="433.792" stroke="rgb(200,0,100)" />
<line x1="258.661" y1="433.792" x2="422.441" y2="309.939" stroke="rgb(200,0,100)" />
<line x1="422.441" y1="309.939" x2="750" y2="50" stroke="rgb(200,0,100)" />
<line x1="100" y1="550" x2="105.118" y2="550" stroke="rgb(100,20,220)" />
<line x1="105.118" y1="550" x2="115.354" y2="550" stroke="rgb(100,20,220)" />
<line x1="115.354" y1="550" x2="135.827" y2="550" stroke="rgb(100,20,220)" />
<line x1="135.827" y1="550" x2="176.772" y2="550" stroke="rgb(100,20,220)" />
<line x1="176.772" y1="550" x2="258.661" y2="550" stroke="rgb(100,20,220)" />
<line x1="258.661" y1="550" x2="422.441" y2="550" stroke="rgb(100,20,220)" />
<line x1="422.441" y1="550" x2="750" y2="550" stroke="rgb(100,20,220)" />
<line x1="100" y1="545.413" x2="105.118" y2="550" stroke="rgb(50,220,10)" />
<line x1="105.118" y1="550" x2="115.354" y2="550" stroke="rgb(50,220,10)" />
<line x1="115.354" y1="550" x2="135.827" y2="548.471" stroke="rgb(50,220,10)" />
<line x1="135.827" y1="548.471" x2="176.772" y2="550" stroke="rgb(50,220,10)" />
<line x1="176.772" y1="550" x2="258.661" y2="550" stroke="rgb(50,220,10)" />
<line x1="258.661" y1="550" x2="422.441" y2="550" stroke="rgb(50,220,10)" />
<line x1="422.441" y1="550" x2="750" y2="550" stroke="rgb(50,220,10)" />
<line x1="100" y1="550" x2="105.118" y2="550" stroke="rgb(200,209,140)" />
<line x1="105.118" y1="550" x2="115.354" y2="550" stroke="rgb(200,209,140)" />
<line x1="115.354" y1="550" x2="135.827" y2="550" stroke="rgb(200,209,140)" />
<line x1="135.827" y1="550" x2="176.772" y2="550" stroke="rgb(200,209,140)" />
<line x1="176.772" y1="550" x2="258.661" y2="550" stroke="rgb(200,209,140)" />
<line x1="258.661" y1="550" x2="422.441" y2="550" stroke="rgb(200,209,140)" />
<line x1="422.441" y1="550" x2="750" y2="550" stroke="rgb(200,209,140)" />
<line x1="100" y1="548.471" x2="105.118" y2="545.413" stroke="rgb(20,100,100)" />
<line x1="105.118" y1="545.413" x2="115.354" y2="540.826" stroke="rgb(20,100,100)" />
<line x1="115.354" y1="540.826" x2="135.827" y2="533.18" stroke="rgb(20,100,100)" />
<line x1="135.827" y1="533.18" x2="176.772" y2="513.303" stroke="rgb(20,100,100)" />
<line x1="176.772" y1="513.303" x2="258.661" y2="462.844" stroke="rgb(20,100,100)" />
<line x1="258.661" y1="462.844" x2="422.441" y2="349.694" stroke="rgb(20,100,100)" />
<line x1="422.441" y1="349.694" x2="750" y2="118.807" stroke="rgb(20,100,100)" />
</svg>

